<svg width="113" height="40" viewBox="0 0 113 40" fill="none" xmlns="http://www.w3.org/2000/svg">
<path d="M3.61328 38.8535C2.63672 38.3001 1.95312 37.763 1.5625 37.2422C1.17188 36.7214 0.976562 36.168 0.976562 35.582C0.976562 34.9961 1.12305 34.3451 1.41602 33.6289C1.70898 32.9128 2.05078 32.0827 2.44141 31.1387C2.53906 30.9434 2.73438 30.5527 3.02734 29.9668C3.32031 29.3483 3.64583 28.6322 4.00391 27.8184C4.39453 27.0046 4.80143 26.1582 5.22461 25.2793C5.68034 24.3678 6.08724 23.5052 6.44531 22.6914C6.83594 21.8776 7.16146 21.1777 7.42188 20.5918C7.71484 19.9733 7.91016 19.5664 8.00781 19.3711C8.43099 18.4596 8.61003 17.6621 8.54492 16.9785C8.51237 16.2624 8.43099 15.5951 8.30078 14.9766C8.20312 14.3581 8.1543 13.7559 8.1543 13.1699C8.18685 12.584 8.49609 11.9167 9.08203 11.168C9.17969 11.0703 9.39128 10.8424 9.7168 10.4844C10.0423 10.1263 10.3841 9.75195 10.7422 9.36133C11.1328 8.93815 11.4909 8.5638 11.8164 8.23828C12.1419 7.88021 12.3372 7.65234 12.4023 7.55469C12.5651 7.35938 13.0208 7.03385 13.7695 6.57812C14.5508 6.1224 15.4948 5.63411 16.6016 5.11328C17.7083 4.5599 18.929 4.00651 20.2637 3.45312C21.6309 2.86719 22.9818 2.36263 24.3164 1.93945C25.651 1.48372 26.9368 1.14193 28.1738 0.914062C29.4108 0.686198 30.4688 0.621094 31.3477 0.71875C32.2266 0.816406 32.8613 1.12565 33.252 1.64648C33.6751 2.16732 33.7402 2.96484 33.4473 4.03906C32.959 5.79688 32.1615 7.3431 31.0547 8.67773C29.9805 10.0124 28.8411 11.2005 27.6367 12.2422C26.4323 13.2839 25.2767 14.2116 24.1699 15.0254C23.0957 15.8392 22.2982 16.6042 21.7773 17.3203C25.6836 17.4505 28.5319 17.9225 30.3223 18.7363C32.1452 19.5501 33.1706 20.5755 33.3984 21.8125C33.6589 23.0495 33.2682 24.4329 32.2266 25.9629C31.1849 27.4603 29.7526 28.9577 27.9297 30.4551C26.1068 31.9199 24.0397 33.3197 21.7285 34.6543C19.4173 35.9564 17.1061 37.0306 14.7949 37.877C12.5163 38.7233 10.3678 39.2604 8.34961 39.4883C6.36393 39.7161 4.78516 39.5046 3.61328 38.8535ZM7.4707 27.0371C6.85221 27.7858 6.28255 28.6159 5.76172 29.5273C5.24089 30.4062 4.83398 31.2852 4.54102 32.1641C4.2806 33.0104 4.16667 33.8242 4.19922 34.6055C4.23177 35.3542 4.47591 35.9727 4.93164 36.4609C5.38737 36.9167 6.07096 37.1934 6.98242 37.291C7.92643 37.3887 9.17969 37.2096 10.7422 36.7539C14.1927 35.9727 17.1875 34.9798 19.7266 33.7754C22.2982 32.571 24.4141 31.3177 26.0742 30.0156C27.7669 28.681 29.0039 27.3626 29.7852 26.0605C30.599 24.7585 30.9733 23.6191 30.9082 22.6426C30.8757 21.6335 30.4036 20.8685 29.4922 20.3477C28.6133 19.8268 27.3275 19.6803 25.6348 19.9082C23.9421 20.1035 21.8424 20.7708 19.3359 21.9102C16.862 23.0169 13.9974 24.7259 10.7422 27.0371C10.3841 27.3301 10.0586 27.4766 9.76562 27.4766C9.47266 27.444 9.19596 27.3789 8.93555 27.2812C8.67513 27.151 8.43099 27.0371 8.20312 26.9395C7.97526 26.8418 7.73112 26.8743 7.4707 27.0371ZM8.54492 22.9355C8.54492 23.0332 8.52865 23.1797 8.49609 23.375C8.49609 23.5703 8.49609 23.7819 8.49609 24.0098C8.49609 24.2051 8.49609 24.4004 8.49609 24.5957C8.52865 24.791 8.54492 24.9375 8.54492 25.0352C8.80534 24.9701 9.34245 24.6608 10.1562 24.1074C10.9701 23.554 11.9466 22.8379 13.0859 21.959C14.2578 21.0801 15.5273 20.0872 16.8945 18.9805C18.2617 17.8411 19.6289 16.6693 20.9961 15.4648C22.3958 14.2279 23.7142 13.0072 24.9512 11.8027C26.2207 10.5658 27.3112 9.41016 28.2227 8.33594C29.1341 7.26172 29.8177 6.31771 30.2734 5.50391C30.7617 4.65755 30.9082 4.00651 30.7129 3.55078C29.2806 3.35547 27.7669 3.45312 26.1719 3.84375C24.6094 4.20182 23.0632 4.73893 21.5332 5.45508C20.0358 6.17122 18.6361 7.0013 17.334 7.94531C16.0319 8.85677 14.9414 9.75195 14.0625 10.6309C13.8672 11.054 13.5417 11.8027 13.0859 12.877C12.6302 13.9512 12.1257 15.0905 11.5723 16.2949C11.0514 17.4993 10.5469 18.6387 10.0586 19.7129C9.60286 20.7546 9.27734 21.487 9.08203 21.9102C9.08203 21.9753 9.00065 22.1543 8.83789 22.4473C8.67513 22.7077 8.57747 22.8704 8.54492 22.9355ZM39.209 38.4629C38.2324 38.1374 37.4837 37.6491 36.9629 36.998C36.4746 36.3145 36.1491 35.5658 35.9863 34.752C35.8236 33.9382 35.791 33.0918 35.8887 32.2129C36.0189 31.3014 36.2142 30.4388 36.4746 29.625C37.4512 28.5833 38.5417 27.3952 39.7461 26.0605C40.9831 24.6934 42.2852 23.3587 43.6523 22.0566C45.0195 20.7546 46.4355 19.5501 47.9004 18.4434C49.3978 17.304 50.9115 16.4414 52.4414 15.8555C52.9622 15.6276 53.3691 15.6439 53.6621 15.9043C53.9876 16.1322 54.2155 16.5065 54.3457 17.0273C54.4759 17.5482 54.5247 18.1504 54.4922 18.834C54.4922 19.5176 54.4434 20.1849 54.3457 20.8359C54.248 21.487 54.1178 22.0729 53.9551 22.5938C53.7923 23.1146 53.6296 23.4727 53.4668 23.668C53.0762 24.1237 52.3112 24.6608 51.1719 25.2793C50.0651 25.8978 48.8281 26.5814 47.4609 27.3301C46.0938 28.0462 44.7266 28.7949 43.3594 29.5762C41.9922 30.3574 40.8691 31.1387 39.9902 31.9199C39.1113 32.6686 38.5905 33.4173 38.4277 34.166C38.265 34.9147 38.7207 35.5983 39.7949 36.2168C40.9017 36.347 42.2363 36.2982 43.7988 36.0703C45.3939 35.8099 47.0052 35.4844 48.6328 35.0938C50.293 34.6706 51.888 34.2474 53.418 33.8242C54.9479 33.3685 56.2012 33.0104 57.1777 32.75L57.7637 33.2871C57.0475 34.2311 55.8757 35.0938 54.248 35.875C52.6204 36.6562 50.8626 37.3073 48.9746 37.8281C47.0866 38.3164 45.2474 38.6419 43.457 38.8047C41.6667 38.9349 40.2507 38.821 39.209 38.4629ZM50.8789 19.8105C50.8464 19.778 50.6022 19.9245 50.1465 20.25C49.6908 20.543 49.1211 20.9499 48.4375 21.4707C47.7865 21.959 47.0703 22.5124 46.2891 23.1309C45.5404 23.7168 44.8405 24.2702 44.1895 24.791C43.571 25.3118 43.0501 25.7676 42.627 26.1582C42.2038 26.5163 42.0247 26.6953 42.0898 26.6953C42.6107 26.793 43.278 26.7279 44.0918 26.5C44.9382 26.2396 45.8008 25.8815 46.6797 25.4258C47.5911 24.9701 48.4538 24.4655 49.2676 23.9121C50.0814 23.3262 50.7161 22.7565 51.1719 22.2031C51.6602 21.6497 51.9043 21.1615 51.9043 20.7383C51.9368 20.3151 51.5951 20.0059 50.8789 19.8105ZM57.7148 38.4629C57.6497 38.4303 57.6497 38.056 57.7148 37.3398C57.8125 36.5911 57.9427 35.6634 58.1055 34.5566C58.2682 33.4499 58.4798 32.2292 58.7402 30.8945C59.0007 29.5599 59.2773 28.2904 59.5703 27.0859C59.8633 25.849 60.1725 24.7747 60.498 23.8633C60.8561 22.9193 61.1979 22.2682 61.5234 21.9102C61.7513 21.6823 61.9792 21.6823 62.207 21.9102C62.4349 22.1055 62.6628 22.3659 62.8906 22.6914C63.1185 22.9844 63.3464 23.2611 63.5742 23.5215C63.8021 23.7493 64.0462 23.7656 64.3066 23.5703C65.2181 22.3008 66.2109 21.0964 67.2852 19.957C68.3919 18.7852 69.6126 17.776 70.9473 16.9297C71.0775 16.832 71.4355 16.6855 72.0215 16.4902C72.6074 16.2624 73.2747 16.0508 74.0234 15.8555C74.7721 15.6276 75.5371 15.4486 76.3184 15.3184C77.1322 15.1556 77.8158 15.0905 78.3691 15.123C78.9551 15.123 79.3457 15.2695 79.541 15.5625C79.7689 15.8229 79.6712 16.2786 79.248 16.9297C77.2949 16.9622 75.472 17.5319 73.7793 18.6387C72.0866 19.7454 70.5241 21.1126 69.0918 22.7402C67.6595 24.3678 66.3574 26.1419 65.1855 28.0625C64.0137 29.9505 62.9883 31.7083 62.1094 33.3359C61.263 34.9635 60.5469 36.3145 59.9609 37.3887C59.4076 38.4629 59.0007 39 58.7402 39C58.7077 39 58.5612 38.9349 58.3008 38.8047C58.0404 38.6419 57.8451 38.528 57.7148 38.4629ZM84.4727 38.4629C84.4401 38.3978 84.4238 38.2188 84.4238 37.9258C84.4238 37.6328 84.4401 37.4375 84.4727 37.3398C84.5703 36.9818 84.7493 36.3633 85.0098 35.4844C85.2702 34.5729 85.5469 33.6289 85.8398 32.6523C86.1328 31.6432 86.4095 30.6992 86.6699 29.8203C86.9303 28.9414 87.1094 28.3229 87.207 27.9648C87.3372 27.5091 87.4837 26.9883 87.6465 26.4023C87.8092 25.7839 87.8418 25.1979 87.7441 24.6445C87.2559 24.5794 86.6536 24.6445 85.9375 24.8398C85.2214 25.0026 84.5052 25.1491 83.7891 25.2793C83.1055 25.377 82.4544 25.377 81.8359 25.2793C81.25 25.1491 80.8268 24.7585 80.5664 24.1074C80.957 23.2936 81.543 22.7728 82.3242 22.5449C83.1055 22.2845 83.9518 22.1055 84.8633 22.0078C85.7747 21.9102 86.6374 21.7637 87.4512 21.5684C88.2975 21.373 88.9648 20.9336 89.4531 20.25C89.7461 19.4036 90.0879 18.3783 90.4785 17.1738C90.9017 15.9368 91.3411 14.651 91.7969 13.3164C92.2526 11.9818 92.7409 10.6634 93.2617 9.36133C93.8151 8.05924 94.3848 6.90365 94.9707 5.89453C95.3288 5.66667 95.6217 5.65039 95.8496 5.8457C96.0775 6.04102 96.2402 6.33398 96.3379 6.72461C96.4681 7.08268 96.5495 7.45703 96.582 7.84766C96.6146 8.23828 96.6146 8.4987 96.582 8.62891C96.3867 9.47526 96.0449 10.3867 95.5566 11.3633C95.1009 12.3073 94.6615 13.2676 94.2383 14.2441C93.8477 15.2207 93.5221 16.1973 93.2617 17.1738C93.0339 18.1504 93.0339 19.0781 93.2617 19.957H103.76C103.792 19.957 103.874 20.071 104.004 20.2988C104.134 20.4941 104.248 20.6569 104.346 20.7871C104.508 21.2428 104.329 21.5521 103.809 21.7148C103.288 21.8776 102.588 21.9915 101.709 22.0566C100.83 22.0892 99.821 22.1217 98.6816 22.1543C97.5749 22.1543 96.5007 22.2357 95.459 22.3984C94.4499 22.5286 93.5384 22.7728 92.7246 23.1309C91.9108 23.4564 91.3574 23.9609 91.0645 24.6445C90.2181 26.8255 89.4368 29.0228 88.7207 31.2363C88.0046 33.4173 87.321 35.6309 86.6699 37.877C86.6048 37.9746 86.4746 38.1374 86.2793 38.3652C86.084 38.5605 85.8724 38.7396 85.6445 38.9023C85.4167 39.0326 85.1888 39.0814 84.9609 39.0488C84.7656 39.0163 84.6029 38.821 84.4727 38.4629ZM101.562 38.4629C102.897 34.166 104.102 30.7643 105.176 28.2578C106.283 25.7188 107.194 23.9447 107.91 22.9355C108.659 21.9264 109.163 21.6009 109.424 21.959C109.684 22.3171 109.652 23.2285 109.326 24.6934C109.033 26.1582 108.382 28.1276 107.373 30.6016C106.396 33.043 105.013 35.8424 103.223 39C102.962 39.0977 102.653 39.1139 102.295 39.0488C101.937 38.9837 101.693 38.7884 101.562 38.4629ZM110.107 14.9766C110.042 14.8138 110.01 14.5208 110.01 14.0977C110.01 13.6745 110.042 13.4141 110.107 13.3164C110.856 13.056 111.426 13.0234 111.816 13.2188C112.207 13.4141 112.451 13.707 112.549 14.0977C112.646 14.4557 112.63 14.8464 112.5 15.2695C112.402 15.6927 112.223 16.0182 111.963 16.2461C111.702 16.4414 111.393 16.474 111.035 16.3438C110.71 16.181 110.4 15.7253 110.107 14.9766Z" fill="white"/>
</svg>
