<svg width="20" height="22" viewBox="0 0 20 22" fill="none" xmlns="http://www.w3.org/2000/svg">
<path d="M6.84663 10.5656C8.10277 11.5256 9.69148 11.6457 10.7273 11.4762C11.2616 11.3596 11.9792 11.0718 12.6541 10.5656M6.84663 10.5656C5.74966 9.7272 4.90631 8.24819 4.90631 5.7619C5.068 4.1746 6.26453 1 9.7571 1C11.2123 1 14.2198 1.95238 14.6079 5.7619C14.8535 8.17251 13.8171 9.6933 12.6541 10.5656M6.84663 10.5656C4.74462 10.8691 0.637612 12.4286 1.02568 16.2381C1.41374 20.0476 5.71471 21 7.81669 21H12.6675H13.6376C15.2546 20.8413 18.5855 19.6667 18.9735 16.2381C19.4586 11.9524 13.1258 10.5656 12.6541 10.5656" stroke="white"/>
</svg>
